<svg width="55" height="50" viewBox="0 0 55 50" fill="none" xmlns="http://www.w3.org/2000/svg">
<path d="M22.0722 30.9049C20.0862 28.9946 19.0175 26.4601 18.5636 25.0794C15.4522 27.7179 8.77548 26.6303 6.79894 26.2331C6.12749 28.8055 4.92644 30.4132 3.93344 31.3683C5.32363 36.0402 10.5534 38.8867 15.2441 37.6668C15.0077 37.7235 14.7618 37.7708 14.5254 37.8086C18.1569 37.1845 21.117 34.5365 22.0722 30.9144V30.9049ZM15.7832 34.196C13.9201 35.3876 12.0382 35.3782 10.1751 34.196C9.91033 34.0258 9.83468 33.6664 10.0049 33.4111C10.1751 33.1368 10.5345 33.0706 10.7898 33.2408C12.2652 34.1771 13.6932 34.1771 15.1685 33.2408C15.7927 32.8342 16.4168 33.7894 15.7832 34.2055V34.196ZM12.9272 18.9795C18.5447 18.9417 23.0084 23.9823 22.3464 29.5431C20.1713 27.1126 19.3958 23.8594 19.3864 23.831C19.3391 23.6135 19.1688 23.4433 18.9513 23.396C18.7244 23.3487 18.5068 23.4433 18.365 23.623C15.8021 27.141 6.59089 25.0321 6.50577 25.0037C6.20315 24.928 5.8816 25.1172 5.8154 25.4387C5.32363 27.6328 4.44412 29.0986 3.60244 30.0538C2.57161 24.3606 7.12994 18.9228 12.9272 18.9795ZM6.84623 45.8094L11.4897 49.9894H0.0371094C0.103309 45.7621 2.86478 42.1873 6.66654 40.8822V45.3838C6.66654 45.5446 6.73274 45.6959 6.84623 45.8094ZM9.37128 40.381L11.8585 48.7789L7.8014 45.119V40.5796C8.30262 40.4661 8.83222 40.3999 9.37128 40.3715V40.381ZM15.0739 41.4496L12.9839 48.5519C12.9839 48.5519 10.8939 41.4685 10.8844 41.4496L12.6056 42.8871C12.8326 43.0573 13.1257 43.0479 13.3527 42.8871L15.0739 41.4496ZM15.5846 38.7543V39.5298L12.965 41.705L10.3548 39.5298V38.7543C12.0666 39.161 13.8729 39.161 15.5751 38.7543H15.5846ZM25.9212 49.9894H14.4687L19.1121 45.8094C19.2256 45.6959 19.2918 45.5446 19.2918 45.3838V40.8917C23.0935 42.1873 25.855 45.7621 25.9212 49.9894ZM18.1475 45.119L14.0904 48.7789L16.5776 40.381C17.1167 40.3999 17.6273 40.4755 18.1475 40.589V45.1284V45.119ZM51.1906 30.5929C51.2095 30.5172 51.2284 30.4321 51.2474 30.3564C44.8449 32.4181 38.7923 28.9568 36.4375 25.9305C35.6337 27.4247 33.9881 28.569 32.5507 29.3351C32.91 34.6972 38.2911 38.7543 43.5493 37.8086C43.5587 37.7992 43.5871 37.7992 43.606 37.7992C43.3601 37.8181 43.1142 37.8748 42.8778 37.8748C46.9349 37.4776 50.2733 34.5932 51.2001 30.5929H51.1906ZM44.8071 34.196C42.944 35.3876 41.0621 35.3782 39.199 34.196C38.9342 34.0258 38.8585 33.6664 39.0288 33.4111C39.199 33.1368 39.5584 33.0706 39.8137 33.2408C41.289 34.1771 42.7265 34.1771 44.1924 33.2408C44.7976 32.8247 45.4502 33.8083 44.8071 34.2055V34.196ZM54.9451 49.9894H29.0704C29.1366 44.788 33.2978 40.5607 38.4613 40.381L39.3314 42.2062C39.8232 43.2465 40.854 43.899 42.0078 43.899C43.1615 43.899 44.1829 43.2465 44.6747 42.2062L45.5447 40.381C50.7083 40.5607 54.8694 44.7974 54.9546 49.9894H54.9451ZM44.6179 38.7543V39.6717L43.6438 41.7144C43.3318 42.367 42.7265 42.7547 42.0078 42.7547C40.3433 42.7831 40.0501 40.816 39.3976 39.6717V38.7543C41.0999 39.1705 42.9062 39.1515 44.6085 38.7543H44.6179ZM51.4176 29.1081C41.2039 32.1911 37.2319 24.4079 36.2578 24.2282C36.0025 24.2282 35.7661 24.4079 35.6999 24.6632C35.4162 25.8265 34.2908 27.0181 32.5034 28.0584C32.6169 24.7294 34.6218 21.6181 37.5535 20.0671C43.9276 16.5774 52.0512 21.8545 51.4176 29.1081ZM42.4144 13.6646V2.68492C42.4144 1.3231 41.3079 0.226074 39.9461 0.226074H18.8378C17.476 0.226074 16.3695 1.3231 16.3695 2.68492V13.6646C16.3695 15.0265 17.476 16.1235 18.8378 16.1235H21.3534V20.1238C21.3534 20.3508 21.4953 20.5589 21.7034 20.6534C21.9114 20.748 22.1667 20.7007 22.3181 20.5305L26.7156 16.1329H39.9367C41.2985 16.1329 42.405 15.0359 42.405 13.6741L42.4144 13.6646ZM25.4862 11.48C25.4862 11.8016 25.2309 12.0475 24.9188 12.0475H21.9114C21.5899 12.0475 21.344 11.7921 21.344 11.48V9.98581H19.8498C19.5282 9.98581 19.2823 9.73047 19.2823 9.41839V6.41102C19.2823 6.08948 19.5377 5.8436 19.8498 5.8436H21.344V4.34937C21.344 4.02783 21.5993 3.78195 21.9114 3.78195H24.9188C25.2403 3.78195 25.4862 4.03729 25.4862 4.34937V5.8436H26.9804C27.302 5.8436 27.5478 6.09894 27.5478 6.41102V9.41839C27.5478 9.73993 27.2925 9.98581 26.9804 9.98581H25.4862V11.48ZM38.1114 8.48213H30.3944C29.6568 8.48213 29.6473 7.34728 30.3944 7.33782H38.1114C38.8585 7.34728 38.8585 8.48213 38.1114 8.48213ZM38.6883 10.837C38.6883 11.1585 38.4235 11.4044 38.1209 11.4044H30.4039C30.0918 11.4044 29.8365 11.149 29.8365 10.837C29.8365 10.5249 30.1013 10.2695 30.4039 10.2695H38.1209C38.433 10.2695 38.6883 10.5343 38.6883 10.837ZM38.1114 5.55043H30.3944C29.6568 5.55043 29.6473 4.41557 30.3944 4.40612H38.1114C38.8585 4.41557 38.8585 5.55043 38.1114 5.55043ZM24.9188 6.97845H26.413V8.8415C24.1055 8.8415 24.3324 8.59562 24.3419 10.9126H22.4788C22.4788 8.60507 22.7247 8.83205 20.4077 8.8415V6.97845H21.9019C22.2235 6.97845 22.4694 6.71365 22.4694 6.41102V4.9168H24.3324V6.41102C24.3324 6.72311 24.5878 6.97845 24.8999 6.97845H24.9188Z" fill="white"/>
</svg>
