<svg width="62" height="62" viewBox="0 0 62 62" fill="none" xmlns="http://www.w3.org/2000/svg">
<g clip-path="url(#clip0_2283_726)">
<path d="M1.14111 44.3482V48.3675H4.92396V42.6932C4.9258 41.5485 5.36727 40.4482 6.15716 39.6196H5.87345C5.25217 39.6191 4.63688 39.7411 4.06275 39.9785C3.48862 40.2159 2.9669 40.5641 2.52741 41.0033C2.08792 41.4424 1.73928 41.9638 1.50141 42.5378C1.26355 43.1117 1.14111 43.7269 1.14111 44.3482Z" fill="white"/>
<path d="M1.14111 54.7511C1.14111 54.9392 1.21584 55.1196 1.34886 55.2527C1.48187 55.3857 1.66228 55.4604 1.8504 55.4604H4.92396V49.7861H1.14111V54.7511Z" fill="white"/>
<path d="M13.1988 39.1464C12.5565 39.1458 11.9182 39.0443 11.3074 38.8457V39.6193H10.6454C10.6144 39.775 10.5982 39.9334 10.5972 40.0922C10.5972 40.7819 10.8712 41.4434 11.3589 41.9311C11.8466 42.4189 12.5081 42.6929 13.1979 42.6929C13.8876 42.6929 14.5491 42.4189 15.0368 41.9311C15.5246 41.4434 15.7986 40.7819 15.7986 40.0922C15.7991 39.9334 15.7836 39.775 15.7522 39.6193H15.0902V38.8457C14.4794 39.0443 13.8411 39.1458 13.1988 39.1464Z" fill="white"/>
<path d="M26.6225 11.2228L25.7931 16.062C25.7707 16.1925 25.7852 16.3266 25.835 16.4492C25.8848 16.5718 25.968 16.6781 26.075 16.7559C26.1821 16.8337 26.3088 16.8801 26.4408 16.8896C26.5728 16.8992 26.7049 16.8717 26.822 16.8101L31.1676 14.5253L35.5178 16.8101C35.635 16.8717 35.7671 16.8992 35.8991 16.8896C36.0311 16.8801 36.1578 16.8337 36.2648 16.7559C36.3719 16.6781 36.455 16.5718 36.5048 16.4492C36.5547 16.3266 36.5692 16.1925 36.5468 16.062L35.7174 11.2228L39.2279 7.79653C39.3225 7.70407 39.3894 7.58702 39.421 7.45858C39.4527 7.33013 39.4478 7.1954 39.4071 7.06956C39.3663 6.94372 39.2911 6.83178 39.1901 6.74635C39.0891 6.66091 38.9663 6.60539 38.8354 6.58602L33.9763 5.87958L31.804 1.47729C31.7455 1.35839 31.6549 1.25824 31.5424 1.18821C31.4299 1.11818 31.3001 1.08105 31.1676 1.08105C31.0351 1.08105 30.9052 1.11818 30.7927 1.18821C30.6802 1.25824 30.5896 1.35839 30.5311 1.47729L28.356 5.87958L23.4969 6.58602C23.366 6.60539 23.2432 6.66091 23.1422 6.74635C23.0412 6.83178 22.966 6.94372 22.9252 7.06956C22.8844 7.1954 22.8796 7.33013 22.9113 7.45858C22.9429 7.58702 23.0098 7.70407 23.1044 7.79653L26.6225 11.2228Z" fill="white"/>
<path d="M44.591 10.7254L43.9848 14.2633C43.9624 14.3938 43.9769 14.5279 44.0268 14.6505C44.0766 14.7731 44.1597 14.8794 44.2668 14.9572C44.3738 15.035 44.5005 15.0813 44.6325 15.0909C44.7646 15.1005 44.8966 15.073 45.0138 15.0114L48.1904 13.3413L51.3671 15.0114C51.4842 15.073 51.6163 15.1005 51.7483 15.0909C51.8803 15.0813 52.007 15.035 52.1141 14.9572C52.2211 14.8794 52.3042 14.7731 52.3541 14.6505C52.4039 14.5279 52.4184 14.3938 52.396 14.2633L51.7898 10.7254L54.3593 8.22213C54.454 8.12972 54.521 8.01266 54.5526 7.88418C54.5843 7.7557 54.5794 7.62093 54.5384 7.4951C54.4975 7.36927 54.4222 7.25739 54.321 7.17212C54.2198 7.08685 54.0968 7.03158 53.9659 7.01257L50.4157 6.49621L48.8269 3.28079C48.7681 3.16218 48.6774 3.06234 48.565 2.99253C48.4525 2.92273 48.3228 2.88574 48.1904 2.88574C48.0581 2.88574 47.9283 2.92273 47.8159 2.99253C47.7034 3.06234 47.6127 3.16218 47.554 3.28079L45.9652 6.49621L42.415 7.01257C42.284 7.03158 42.161 7.08685 42.0598 7.17212C41.9586 7.25739 41.8833 7.36927 41.8424 7.4951C41.8015 7.62093 41.7966 7.7557 41.8282 7.88418C41.8599 8.01266 41.9268 8.12972 42.0215 8.22213L44.591 10.7254Z" fill="white"/>
<path d="M10.545 10.7254L9.93881 14.2633C9.91639 14.3938 9.93091 14.5279 9.98073 14.6505C10.0306 14.7731 10.1137 14.8794 10.2208 14.9572C10.3278 15.035 10.4545 15.0813 10.5865 15.0909C10.7185 15.1005 10.8506 15.073 10.9677 15.0114L14.1444 13.3413L17.321 15.0114C17.4382 15.073 17.5703 15.1005 17.7023 15.0909C17.8343 15.0813 17.961 15.035 18.068 14.9572C18.1751 14.8794 18.2582 14.7731 18.308 14.6505C18.3579 14.5279 18.3724 14.3938 18.35 14.2633L17.7438 10.7254L20.3133 8.22213C20.408 8.12972 20.4749 8.01266 20.5066 7.88418C20.5382 7.7557 20.5333 7.62093 20.4924 7.4951C20.4515 7.36927 20.3762 7.25739 20.275 7.17212C20.1738 7.08685 20.0508 7.03158 19.9198 7.01257L16.3696 6.49621L14.7809 3.28079C14.7221 3.16218 14.6314 3.06234 14.5189 2.99253C14.4065 2.92273 14.2767 2.88574 14.1444 2.88574C14.012 2.88574 13.8823 2.92273 13.7698 2.99253C13.6574 3.06234 13.5667 3.16218 13.5079 3.28079L11.9191 6.49621L8.36893 7.01162C8.23779 7.03051 8.11456 7.08574 8.01321 7.17108C7.91185 7.25641 7.83642 7.36843 7.79547 7.49443C7.75452 7.62044 7.74968 7.75539 7.7815 7.88401C7.81332 8.01263 7.88053 8.12976 7.97551 8.22213L10.545 10.7254Z" fill="white"/>
<path d="M35.8961 38.6736V32.9993H34.1938C32.2343 32.9992 30.3332 32.3322 28.8032 31.1079L26.439 32.9993V38.6736C26.439 39.9277 26.9372 41.1304 27.8239 42.0172C28.7107 42.904 29.9134 43.4022 31.1675 43.4022C32.4216 43.4022 33.6243 42.904 34.5111 42.0172C35.3979 41.1304 35.8961 39.9277 35.8961 38.6736Z" fill="white"/>
<path d="M39.4424 61.1342H42.5159C42.7041 61.1342 42.8845 61.0595 43.0175 60.9265C43.1505 60.7935 43.2252 60.6131 43.2252 60.4249V55.46H39.4424V61.1342Z" fill="white"/>
<path d="M38.4966 45.2939H38.2129C39.0014 46.1231 39.4415 47.2233 39.4423 48.3675V54.0418H43.2252V50.0225C43.2252 49.4015 43.1028 48.7867 42.8652 48.213C42.6276 47.6393 42.2793 47.118 41.8402 46.6789C41.4011 46.2398 40.8798 45.8915 40.3061 45.6539C39.7324 45.4163 39.1176 45.2939 38.4966 45.2939Z" fill="white"/>
<path d="M19.1099 50.0225V54.0418H22.8927V48.3675C22.8935 47.2233 23.3336 46.1231 24.1221 45.2939H23.8384C22.5843 45.2939 21.3816 45.7921 20.4948 46.6789C19.608 47.5657 19.1099 48.7684 19.1099 50.0225Z" fill="white"/>
<path d="M19.1099 60.4249C19.1099 60.6131 19.1846 60.7935 19.3176 60.9265C19.4506 61.0595 19.631 61.1342 19.8191 61.1342H22.8927V55.46H19.1099V60.4249Z" fill="white"/>
<path d="M35.1394 45.3125C35.1639 45.4628 35.1794 45.6143 35.1857 45.7664C35.1857 46.8324 34.7623 47.8547 34.0085 48.6085C33.2548 49.3623 32.2324 49.7857 31.1665 49.7857C30.1005 49.7857 29.0782 49.3623 28.3244 48.6085C27.5706 47.8547 27.1472 46.8324 27.1472 45.7664C27.1541 45.6143 27.1702 45.4627 27.1954 45.3125C26.4162 45.3592 25.684 45.7011 25.1479 46.2686C24.6119 46.8361 24.3123 47.5865 24.3101 48.3671V61.1342H38.0229V48.3671C38.0205 47.5869 37.721 46.8368 37.1854 46.2694C36.6498 45.702 35.9182 45.3599 35.1394 45.3125Z" fill="white"/>
<path d="M37.3149 32.2897V32.5498C37.8209 32.5923 38.3084 32.76 38.7334 33.0378V27.5612C38.7334 26.5579 38.3349 25.5957 37.6255 24.8863C36.916 24.1769 35.9539 23.7783 34.9506 23.7783H32.3366C30.946 23.7782 29.5744 24.102 28.3306 24.724H27.3849C26.3816 24.724 25.4194 25.1226 24.71 25.832C24.0006 26.5414 23.6021 27.5036 23.6021 28.5069V33.0368C24.0346 32.7549 24.5313 32.5867 25.0462 32.5479C25.0686 32.3754 25.1542 32.2174 25.2864 32.1044L28.3599 29.6455C28.4859 29.545 28.6423 29.4903 28.8035 29.4903C28.9646 29.4903 29.121 29.545 29.247 29.6455L29.6896 30.0002C30.9682 31.023 32.5567 31.5803 34.194 31.5804H36.6056C36.7937 31.5804 36.9741 31.6552 37.1071 31.7882C37.2401 31.9212 37.3149 32.1016 37.3149 32.2897Z" fill="white"/>
<path d="M31.1676 44.8208C30.5252 44.8201 29.887 44.7187 29.2761 44.52V45.2936H28.6141C28.5831 45.4493 28.567 45.6077 28.5659 45.7665C28.5659 46.4562 28.8399 47.1177 29.3276 47.6054C29.8154 48.0932 30.4769 48.3672 31.1666 48.3672C31.8564 48.3672 32.5179 48.0932 33.0056 47.6054C33.4933 47.1177 33.7673 46.4562 33.7673 45.7665C33.7678 45.6077 33.7523 45.4493 33.721 45.2936H33.059V44.52C32.4481 44.7187 31.8099 44.8201 31.1676 44.8208Z" fill="white"/>
<path d="M37.3145 37.2319C37.7077 37.1766 38.0678 36.981 38.3283 36.6813C38.5888 36.3815 38.7323 35.9977 38.7323 35.6006C38.7323 35.2034 38.5888 34.8197 38.3283 34.5199C38.0678 34.2201 37.7077 34.0246 37.3145 33.9692V37.2319Z" fill="white"/>
<path d="M25.0209 37.2319V33.9692C24.6276 34.0246 24.2675 34.2201 24.007 34.5199C23.7465 34.8197 23.603 35.2034 23.603 35.6006C23.603 35.9977 23.7465 36.3815 24.007 36.6813C24.2675 36.981 24.6276 37.1766 25.0209 37.2319Z" fill="white"/>
<path d="M17.9273 32.9992V27.3249C16.1004 27.0205 14.4503 26.0523 13.2933 24.606L13.1988 24.4878L13.1042 24.606C11.9473 26.0523 10.2971 27.0205 8.47021 27.3249V32.9992C8.47021 34.2533 8.9684 35.456 9.85518 36.3428C10.742 37.2296 11.9447 37.7277 13.1988 37.7277C14.4529 37.7277 15.6556 37.2296 16.5424 36.3428C17.4291 35.456 17.9273 34.2533 17.9273 32.9992Z" fill="white"/>
<path d="M7.05187 26.7246C7.05183 26.5567 7.11141 26.3941 7.22 26.266C7.32859 26.1378 7.47913 26.0524 7.64483 26.0248L8.25008 25.9236C9.72829 25.677 11.0629 24.8921 11.997 23.7201L12.6439 22.9078C12.7104 22.8244 12.7948 22.7571 12.8909 22.7108C12.987 22.6646 13.0923 22.6405 13.199 22.6405C13.3056 22.6405 13.4109 22.6646 13.507 22.7108C13.6031 22.7571 13.6876 22.8244 13.7541 22.9078L14.4019 23.722C15.334 24.8929 16.6669 25.6769 18.1432 25.9227L18.7532 26.0248C18.9188 26.0524 19.0694 26.1378 19.178 26.266C19.2866 26.3941 19.3461 26.5567 19.3461 26.7246V26.876C19.8521 26.9185 20.3396 27.0862 20.7647 27.3639V23.7788C20.7647 22.2738 20.1669 20.8306 19.1027 19.7664C18.0386 18.7023 16.5953 18.1045 15.0904 18.1045H11.3076C9.80266 18.1045 8.35939 18.7023 7.29526 19.7664C6.23112 20.8306 5.6333 22.2738 5.6333 23.7788V27.3639C6.05837 27.0862 6.54586 26.9185 7.05187 26.876V26.7246Z" fill="white"/>
<path d="M19.3462 28.2949V31.5576C19.7395 31.5023 20.0995 31.3067 20.36 31.007C20.6206 30.7072 20.764 30.3234 20.764 29.9263C20.764 29.5291 20.6206 29.1453 20.36 28.8456C20.0995 28.5458 19.7395 28.3503 19.3462 28.2949Z" fill="white"/>
<path d="M7.05162 31.5576V28.2949C6.65835 28.3503 6.29831 28.5458 6.03778 28.8456C5.77726 29.1453 5.63379 29.5291 5.63379 29.9263C5.63379 30.3234 5.77726 30.7072 6.03778 31.007C6.29831 31.3067 6.65835 31.5023 7.05162 31.5576Z" fill="white"/>
<path d="M53.8648 32.9993V27.325H52.1625C50.2031 27.3249 48.302 26.6579 46.772 25.4336L44.4077 27.325V32.9993C44.4077 34.2534 44.9059 35.4561 45.7927 36.3429C46.6795 37.2297 47.8822 37.7278 49.1363 37.7278C50.3904 37.7278 51.5931 37.2297 52.4799 36.3429C53.3666 35.4561 53.8648 34.2534 53.8648 32.9993Z" fill="white"/>
<path d="M57.4111 55.4604H60.4847C60.6728 55.4604 60.8532 55.3857 60.9862 55.2527C61.1193 55.1196 61.194 54.9392 61.194 54.7511V49.7861H57.4111V55.4604Z" fill="white"/>
<path d="M56.4658 39.6196H56.1821C56.9706 40.4488 57.4107 41.549 57.4116 42.6932V48.3675H61.1944V44.3482C61.1944 43.0941 60.6962 41.8914 59.8094 41.0046C58.9227 40.1178 57.7199 39.6196 56.4658 39.6196Z" fill="white"/>
<path d="M49.1363 39.1464C48.494 39.1458 47.8557 39.0443 47.2449 38.8457V39.6193H46.5829C46.5519 39.775 46.5357 39.9334 46.5347 40.0922C46.5347 40.7819 46.8087 41.4434 47.2964 41.9311C47.7841 42.4189 48.4456 42.6929 49.1354 42.6929C49.8251 42.6929 50.4866 42.4189 50.9743 41.9311C51.4621 41.4434 51.7361 40.7819 51.7361 40.0922C51.7366 39.9334 51.7211 39.775 51.6897 39.6193H51.0277V38.8457C50.4169 39.0443 49.7786 39.1458 49.1363 39.1464Z" fill="white"/>
<path d="M55.2832 31.5576C55.6765 31.5023 56.0365 31.3067 56.297 31.007C56.5576 30.7072 56.701 30.3234 56.701 29.9263C56.701 29.5291 56.5576 29.1453 56.297 28.8456C56.0365 28.5458 55.6765 28.3503 55.2832 28.2949V31.5576Z" fill="white"/>
<path d="M42.9891 31.5576V28.2949C42.5958 28.3503 42.2358 28.5458 41.9753 28.8456C41.7148 29.1453 41.5713 29.5291 41.5713 29.9263C41.5713 30.3234 41.7148 30.7072 41.9753 31.007C42.2358 31.3067 42.5958 31.5023 42.9891 31.5576Z" fill="white"/>
<path d="M43.2546 26.4305L46.3282 23.9717C46.4542 23.8712 46.6106 23.8164 46.7717 23.8164C46.9329 23.8164 47.0893 23.8712 47.2153 23.9717L47.6579 24.3263C48.9364 25.3491 50.525 25.9064 52.1623 25.9066H54.5738C54.762 25.9066 54.9424 25.9813 55.0754 26.1144C55.2084 26.2474 55.2831 26.4278 55.2831 26.6159V26.876C55.7891 26.9185 56.2766 27.0862 56.7017 27.3639V25.6702C56.7017 23.6636 55.9046 21.7393 54.4858 20.3204C53.0669 18.9016 51.1425 18.1045 49.136 18.1045C47.1295 18.1045 45.2051 18.9016 43.7863 20.3204C42.3674 21.7393 41.5703 23.6636 41.5703 25.6702V27.363C42.0028 27.081 42.4996 26.9129 43.0144 26.8741C43.0368 26.7016 43.1224 26.5436 43.2546 26.4305Z" fill="white"/>
<path d="M23.8383 43.8753H25.2096C25.0961 42.7117 24.5541 41.6318 23.6891 40.8454C22.824 40.0589 21.6975 39.6221 20.5283 39.6196H20.2446C21.0331 40.4488 21.4732 41.549 21.4741 42.6932V44.3482C22.2229 44.0352 23.0267 43.8744 23.8383 43.8753Z" fill="white"/>
<path d="M20.0556 45.1867V42.6928C20.0532 41.9124 19.7536 41.1622 19.2178 40.5948C18.682 40.0274 17.9502 39.6853 17.1712 39.6382C17.1957 39.7884 17.2112 39.94 17.2175 40.0921C17.2175 41.1581 16.794 42.1804 16.0403 42.9342C15.2865 43.6879 14.2642 44.1114 13.1982 44.1114C12.1323 44.1114 11.1099 43.6879 10.3562 42.9342C9.60242 42.1804 9.17896 41.1581 9.17896 40.0921C9.18588 39.94 9.20199 39.7884 9.22719 39.6382C8.44811 39.6851 7.71617 40.0271 7.18032 40.5945C6.64447 41.162 6.34497 41.9123 6.34277 42.6928V55.4599H17.6913V50.0221C17.6919 49.0894 17.9051 48.1691 18.3148 47.3312C18.7245 46.4934 19.3199 45.7599 20.0556 45.1867Z" fill="white"/>
<path d="M40.861 44.3482V42.6932C40.8619 41.549 41.302 40.4488 42.0905 39.6196H41.8068C40.6376 39.6221 39.5111 40.0589 38.646 40.8454C37.781 41.6318 37.239 42.7117 37.1255 43.8753H38.4968C39.3084 43.8744 40.1122 44.0352 40.861 44.3482Z" fill="white"/>
<path d="M53.1081 39.6382C53.1327 39.7884 53.1481 39.94 53.1545 40.0921C53.1545 41.1581 52.731 42.1804 51.9773 42.9342C51.2235 43.6879 50.2012 44.1114 49.1352 44.1114C48.0692 44.1114 47.0469 43.6879 46.2932 42.9342C45.5394 42.1804 45.1159 41.1581 45.1159 40.0921C45.1229 39.94 45.139 39.7884 45.1642 39.6382C44.3849 39.6849 43.6527 40.0267 43.1167 40.5942C42.5806 41.1617 42.281 41.9122 42.2788 42.6928V45.1867C43.0147 45.7598 43.6102 46.4932 44.0201 47.3311C44.4299 48.169 44.6433 49.0893 44.644 50.0221V55.4599H55.9926V42.6928C55.9901 41.9124 55.6906 41.1622 55.1548 40.5948C54.619 40.0274 53.8871 39.6853 53.1081 39.6382Z" fill="white"/>
</g>
<defs>
<clipPath id="clip0_2283_726">
<rect width="60.5255" height="60.5255" fill="white" transform="translate(0.904785 0.845215)"/>
</clipPath>
</defs>
</svg>
