<svg width="50" height="62" viewBox="0 0 50 62" fill="none" xmlns="http://www.w3.org/2000/svg">
<path d="M24.4153 24.7788C25.1536 24.8553 25.9314 24.8955 26.7529 24.8983C27.1023 24.8983 27.4653 24.8911 27.8307 24.8765C27.8658 24.8747 27.901 24.8742 27.9353 24.8742C28.2701 24.8742 28.5893 24.9385 28.8829 25.0534C30.1311 24.2609 31.2981 23.3594 32.351 22.453C32.302 23.2264 32.2701 24.0036 32.2512 24.7655C33.1461 24.236 33.8526 23.5225 34.4037 22.5853C34.9981 21.585 35.296 20.4232 35.4358 19.5168C35.5253 18.9359 35.5504 18.459 35.5453 18.1996C35.5453 18.1278 35.5447 18.0892 35.5442 18.0754C35.4825 16.6493 36.5852 15.4403 38.0035 15.3692C38.0072 15.369 38.01 15.3684 38.0136 15.3682C38.0546 15.3666 38.0958 15.3656 38.1368 15.3656C39.5232 15.3656 40.6604 16.4512 40.7253 17.8379C40.7271 17.8638 40.7315 17.9878 40.7315 18.1893C40.7268 19.3029 40.5808 21.0334 39.9081 22.9663C39.2377 24.902 37.7989 27.5747 34.7551 29.3107C33.9936 29.7469 33.17 30.0999 32.2885 30.3716C32.289 30.3862 32.2893 30.402 32.2898 30.4163C32.4228 34.7106 30.7947 44.1905 32.2566 46.2849C32.6702 46.8777 34.1876 47.2423 36.1568 47.4101L35.8116 58.023C35.7532 59.8127 37.157 61.3104 38.9465 61.3685C38.9823 61.3698 39.0181 61.3703 39.0536 61.3703C40.7953 61.3705 42.2351 59.9875 42.2919 58.2338L42.6454 47.3624C46.1019 47.0673 49.104 46.3699 49.2124 45.3847C50.8057 30.923 46.7852 13.7616 39.0857 13.2904C35.9623 13.0992 35.3967 13.5505 34.72 14.0684C34.4298 14.2904 34.1741 14.605 33.9459 14.9872C33.2058 15.8495 31.5237 17.7191 29.4659 19.4616C28.2242 20.5158 26.8458 21.5186 25.5084 22.2246C25.0045 22.493 24.5086 22.7152 24.0325 22.8877C23.9822 22.9826 23.9404 23.0666 23.9072 23.1377C24.2817 23.6543 24.4534 24.2347 24.4153 24.7788ZM35.8977 38.505L35.5873 37.4251L36.489 37.2042L39.9771 36.3502L40.1501 37.0841L36.4527 38.3196L35.8977 38.505Z" fill="white"/>
<path d="M28.1674 16.483C28.1575 16.5019 28.1516 16.5219 28.1443 16.5419C23.8538 19.496 22.7075 21.9291 22.4689 22.5715C21.3017 21.9561 19.9788 22.1698 19.5089 23.0523C19.4464 23.17 19.4689 23.3124 19.5527 23.468C19.8481 23.615 20.157 23.7486 20.4754 23.8728C21.4962 24.2712 22.6357 24.5531 23.9023 24.7185C23.9316 24.2154 23.7177 23.6757 23.3102 23.2227C23.3204 23.1949 23.3364 23.1526 23.3585 23.0995C23.6427 22.4125 25.0206 19.6765 29.9298 16.6106C31.976 15.3331 33.5385 13.8873 34.7208 12.5081C34.9498 12.5182 35.1801 12.5162 35.4122 12.4985C35.7945 12.4695 36.1796 12.4026 36.5629 12.2944C39.663 11.4197 41.4675 8.19613 40.5928 5.09548C39.7175 1.99484 36.4939 0.190633 33.393 1.06538C30.2937 1.94038 28.489 5.16369 29.3637 8.26459C29.5478 8.91656 29.8367 9.51045 30.2055 10.0351C30.3277 10.2088 30.4578 10.3759 30.5971 10.5338C30.0621 12.2514 29.2882 14.2944 28.1674 16.483ZM29.8207 15.4477C30.5025 13.9609 31.0289 12.5647 31.4355 11.3157C31.5797 11.4257 31.7286 11.5289 31.8821 11.6248C32.2182 11.8352 32.5756 12.0102 32.9477 12.1487C33.1277 12.2156 33.3111 12.2734 33.4975 12.3227C32.5276 13.3792 31.3194 14.4596 29.8207 15.4477Z" fill="white"/>
<path d="M21.955 11.4301C23.0214 8.38857 21.4203 5.05842 18.3788 3.99197C15.3374 2.92551 12.0072 4.5266 10.9408 7.56809C9.8743 10.6096 11.4754 13.9397 14.5169 15.0062C17.5584 16.0726 20.8885 14.4716 21.955 11.4301Z" fill="white"/>
<path d="M7.55473 19.9691C5.23288 24.979 4.48651 28.3231 4.52852 34.1232C4.88252 38.3623 7.68077 39.0989 10.0467 39.3263C10.3366 39.354 10.6071 39.3763 10.8592 39.3875C11.0488 39.4251 11.2446 39.4459 11.4453 39.4459C13.7578 39.4378 15.6009 39.9412 16.6777 40.8336C17.2324 41.2866 17.673 41.8372 18.034 42.6985C18.3899 43.5576 18.644 44.7532 18.644 46.3938C18.6448 47.8066 18.4531 49.5413 17.9985 51.6132C17.6461 53.2221 18.6648 54.8124 20.2737 55.1648C20.4884 55.212 20.7031 55.2343 20.9148 55.2343C22.2856 55.2343 23.5203 54.2833 23.8261 52.8894C24.3518 50.4851 24.6083 48.3378 24.6088 46.3935C24.6088 44.1443 24.2615 42.1533 23.547 40.4217C22.4926 37.8128 20.5224 35.9059 18.3229 34.8683C16.8535 34.1634 15.3107 33.7848 13.7615 33.6087C13.9764 31.3366 14.5524 29.0153 15.1816 26.8833C14.6061 26.473 14.1108 26.0563 13.6901 25.6548C11.3411 23.4294 10.6201 21.1615 10.4992 20.7295C10.3185 20.0562 10.409 19.3578 10.7544 18.7572C11.1004 18.1571 11.6585 17.7274 12.3276 17.5474C12.5488 17.488 12.7765 17.4569 13.0042 17.4569C14.1575 17.4569 15.1824 18.2331 15.4972 19.3433C15.5016 19.3589 15.5143 19.3954 15.534 19.447C15.5781 19.5606 15.6588 19.7512 15.7879 19.9945C15.9871 20.3687 16.3235 20.8993 16.8434 21.467C17.248 19.2676 16.5167 16.9374 14.7257 16.2777C12.5856 15.489 9.26428 16.336 7.55473 19.9691Z" fill="white"/>
<path d="M15.0481 19.6285C15.0235 19.5637 15.0082 19.5185 15.0012 19.4973C15.0007 19.4952 14.9999 19.4931 14.9996 19.4918C14.9988 19.4895 14.9981 19.4872 14.9973 19.4848C14.9973 19.4846 14.9973 19.4843 14.9973 19.4843C14.6882 18.3938 13.5587 17.7509 12.4612 18.0473C11.3551 18.3448 10.7001 19.4835 10.9983 20.5896C11.0647 20.8266 11.6993 23.0546 14.0476 25.2789C14.4299 25.6436 14.8629 26.003 15.3391 26.3508C17.1558 27.677 19.6755 28.8161 23.0222 29.3062C22.8643 28.9177 22.8028 28.4937 22.8472 28.065C22.8718 27.8293 22.9281 27.6047 23.0095 27.3933C23.3869 26.4154 24.329 25.7385 25.4245 25.7385C25.5139 25.7385 25.6034 25.7432 25.6942 25.7528C26.3264 25.8186 26.9398 25.8518 27.5191 25.8518H27.523C28.0835 25.8508 28.6073 25.8171 29.104 25.7572C28.8589 25.5891 28.5778 25.4709 28.2741 25.4208C28.1371 25.3982 27.9958 25.3889 27.8514 25.3946C27.4722 25.4094 27.106 25.4167 26.751 25.4167C25.8721 25.4138 25.0627 25.3679 24.3148 25.2875C24.1322 25.2681 23.9538 25.246 23.7785 25.2222C22.5928 25.0619 21.5723 24.8119 20.6939 24.5043C20.4981 24.4358 20.3098 24.3643 20.1278 24.2906C19.793 24.1552 19.4812 24.0113 19.1895 23.8617C18.2206 23.3648 17.4781 22.8033 16.8972 22.2628C16.8287 22.1983 16.766 22.1342 16.7022 22.0699C16.0211 21.3845 15.5883 20.7239 15.3295 20.2372C15.1884 19.9719 15.0984 19.7595 15.0481 19.6285Z" fill="white"/>
<path d="M3.82827 56.8595H11.4792L11.9787 61.1821H14.5814L13.5104 43.0664V40.8838H1.79688V43.0695L0.726074 61.1819H3.32879L3.82827 56.8595ZM4.36484 43.4772H10.9424L11.3828 55.7361H3.92423L4.36484 43.4772Z" fill="white"/>
<path d="M27.5192 26.3705C27.2052 26.3705 26.8766 26.3602 26.5358 26.3407C26.2472 26.3241 25.9495 26.301 25.6414 26.2689C24.8024 26.182 24.0293 26.6086 23.6323 27.2943C23.4899 27.5399 23.3947 27.8182 23.3636 28.1187C23.3159 28.5793 23.4248 29.0197 23.6447 29.3892C23.7778 29.6133 23.9518 29.8109 24.1582 29.9709C24.4539 30.2004 24.8136 30.3545 25.2135 30.396C26.019 30.479 26.7874 30.5197 27.5192 30.5197H27.5384C29.3177 30.5197 30.8948 30.2736 32.2732 29.8322C33.0836 29.5726 33.8258 29.2456 34.4985 28.8604C37.2449 27.2943 38.7019 24.8651 39.4187 22.7958C40.144 20.711 40.2104 18.9174 40.2133 18.1892C40.2133 18.0046 40.2089 17.8912 40.2076 17.8622C40.1539 16.7196 39.1866 15.8363 38.0447 15.8863C38.0426 15.8863 38.0406 15.8863 38.0385 15.8863C36.8964 15.9392 36.0131 16.9065 36.0623 18.0476L36.0621 18.0479C36.0626 18.0554 36.0644 18.1049 36.0644 18.1892C36.0673 18.329 36.061 18.5702 36.0346 18.8801C35.9534 19.8371 35.6764 21.459 34.8512 22.8482C34.3061 23.7759 33.5623 24.6133 32.4404 25.2575C32.3748 25.2948 32.3076 25.3311 32.2392 25.3674C31.6596 25.6732 30.9723 25.9328 30.1455 26.1115C29.9666 26.1501 29.7799 26.1843 29.5875 26.2149C28.9715 26.313 28.2874 26.3695 27.5192 26.3705Z" fill="white"/>
</svg>
