<svg width="61" height="62" viewBox="0 0 61 62" fill="none" xmlns="http://www.w3.org/2000/svg">
<g clip-path="url(#clip0_2283_760)">
<path d="M42.978 51.9369L45.5667 49.3482C43.8291 45.589 41.5239 39.3827 41.2048 31.2966L41.1337 29.3346H51.8085C54.7523 29.3346 57.1281 26.9583 57.1281 24.0149C57.1281 21.0711 54.7523 18.6953 51.8085 18.6953H50.0353V22.2417H46.4889V18.6953H32.3032V24.0149H35.8496V27.5613H32.3032V34.7724H35.8496V38.3188H32.3032V46.6529L38.1899 58.4267C39.5734 61.2283 43.0136 62.186 45.7089 60.5901C48.0492 59.1715 48.8652 55.9798 47.5172 53.32C47.4466 53.1782 47.3755 52.9653 47.2337 52.7173L45.4956 54.455L42.978 51.9369Z" fill="white"/>
<path d="M15.3513 60.5901C17.9049 62.1153 21.5224 61.1221 22.8699 58.4267L28.757 46.6529V38.3188H25.2106V34.7724H28.757V27.5613H25.2106V24.0149H28.757V18.6953H14.5714V22.2417H11.025V18.6953H9.25175C6.30795 18.6953 3.93213 21.0711 3.93213 24.0149C3.93213 26.9583 6.30795 29.3346 9.25175 29.3346H19.9266L19.8554 31.2966C19.5364 39.241 17.2667 45.4116 15.5642 49.2065L18.2951 51.9369L15.7771 54.455L13.8976 52.5751C13.7203 52.8947 13.6137 53.1426 13.543 53.32C12.1956 55.9798 13.011 59.1715 15.3513 60.5901Z" fill="white"/>
<path d="M50.0357 11.158C52.0952 10.4233 53.5821 8.4737 53.5821 6.16484C53.5821 3.23166 51.1957 0.845215 48.2625 0.845215C45.3293 0.845215 42.9429 3.23166 42.9429 6.16484C42.9429 8.4737 44.4298 10.4233 46.4893 11.158V18.6955H50.0357V11.158Z" fill="white"/>
<path d="M14.5718 11.158C16.6313 10.4233 18.1182 8.4737 18.1182 6.16484C18.1182 3.23166 15.7318 0.845215 12.7986 0.845215C9.86545 0.845215 7.479 3.23166 7.479 6.16484C7.479 8.4737 8.96591 10.4233 11.0254 11.158V18.6955H14.5718V11.158Z" fill="white"/>
<path d="M10.3684 44.2022C11.4032 42.048 10.8828 39.681 9.34927 38.1474C7.33732 36.1369 3.83247 36.1438 1.82699 38.1474C-0.247296 40.2212 -0.256531 43.5857 1.82514 45.6711C3.45982 47.3058 5.87535 47.6082 7.85451 46.6643L13.8977 52.575C14.2519 51.8307 14.8554 50.6956 15.5647 49.2059L10.3684 44.2022Z" fill="white"/>
<path d="M51.7112 38.1479C50.0803 39.7789 49.7736 42.188 50.7101 44.1648L45.5669 49.3487C46.2762 50.8735 46.8793 52.0085 47.2339 52.7178L53.212 46.669C55.1898 47.6087 57.6021 47.3063 59.2335 45.6716C61.3161 43.589 61.3092 40.2236 59.2354 38.1493C57.228 36.1425 53.725 36.1374 51.7112 38.1479Z" fill="white"/>
<path d="M37.6232 7.93805C37.6232 11.8553 34.4475 15.0309 30.5303 15.0309C26.6131 15.0309 23.4375 11.8553 23.4375 7.93805C23.4375 4.02083 26.6131 0.845215 30.5303 0.845215C34.4475 0.845215 37.6232 4.02083 37.6232 7.93805Z" fill="white"/>
</g>
<defs>
<clipPath id="clip0_2283_760">
<rect width="60.5255" height="60.5255" fill="white" transform="translate(0.267578 0.845215)"/>
</clipPath>
</defs>
</svg>
